<?xml version="1.0" encoding="iso-8859-1"?>
<!-- Generator: Adobe Illustrator 16.0.0, SVG Export Plug-In . SVG Version: 6.00 Build 0)  -->
<!DOCTYPE svg PUBLIC "-//W3C//DTD SVG 1.1//EN" "http://www.w3.org/Graphics/SVG/1.1/DTD/svg11.dtd">
<svg version="1.1" id="Capa_1" xmlns="http://www.w3.org/2000/svg" xmlns:xlink="http://www.w3.org/1999/xlink" x="0px" y="0px"
	 width="612.666px" height="612.666px" viewBox="0 0 612.666 612.666" style="enable-background:new 0 0 612.666 612.666;"
	 xml:space="preserve">
<g>
	<g>
		<path d="M296.17,612.479c172.105,5.975,319.278-131.83,316.114-312.894C609.506,141.349,482.138,1.806,306.608,0
			C143.575,1.174,2.921,126.587,0.365,303.502C-2.032,470.244,127.945,606.648,296.17,612.479z M308.941,159.4
			c79.6,1.115,145.068,69.207,144.002,149.723c-1.045,79.471-67.97,144.613-147.801,143.873
			c-79.849-0.729-146.854-67.863-145.746-146.045C160.577,224.161,227.37,158.253,308.941,159.4z"/>
		<path d="M305.25,354.652c28.797,0.371,49.286-19.393,49.373-47.617c0.094-28.36-20.42-49.193-48.383-49.172
			c-27.863,0.048-48.561,21.139-48.443,49.37C257.894,334.555,277.675,354.293,305.25,354.652z"/>
	</g>
</g>
<g>
</g>
<g>
</g>
<g>
</g>
<g>
</g>
<g>
</g>
<g>
</g>
<g>
</g>
<g>
</g>
<g>
</g>
<g>
</g>
<g>
</g>
<g>
</g>
<g>
</g>
<g>
</g>
<g>
</g>
</svg>
